Patient4_TMGait_0pt2_03_right_12_GRF.mot
version=1
nRows=26
nColumns=19
inDegrees=no
endheader
time	F1x	F1y	F1z	M1x	M1y	M1z	F2x	F2y	F2z	M2x	M2y	M2z	EC1x	EC1y	EC1z	EC2x	EC2y	EC2z
25.76	-13.3389	855.6672	53.6271	-321.1763	-58.5763	888.2311	-8.9591	8.0414	-0.60927	2.5988	3.8682	6.4325	-0.0592	0.0182	-0.0073	-0.0462	0.0165	0.9585
25.7808	-14.0036	867.9901	55.3864	-325.4373	-60.2699	900.9551	-6.473	6.02	-0.49359	1.9633	2.8883	4.9962	-0.0592	0.0182	-0.0073	-0.0462	0.0165	0.9585
25.8016	-14.4291	878.7251	56.9438	-329.0468	-61.5572	911.7942	-4.259	4.2511	-0.39515	1.4052	2.0205	3.742	-0.0592	0.0182	-0.0073	-0.0462	0.0165	0.9585
25.8224	-14.3759	885.4409	58.0462	-331.1351	-62.1098	918.106	-2.5038	2.8814	-0.32273	0.97213	1.3343	2.7814	-0.0592	0.0182	-0.0073	-0.0462	0.0165	0.9585
25.8431	-13.628	886.2132	58.5049	-331.0233	-61.6842	917.7874	-1.2461	1.9327	-0.27836	0.67196	0.84235	2.131	-0.0592	0.0182	-0.0073	-0.0462	0.0165	0.9585
25.8639	-12.0591	880.0233	58.2258	-328.3626	-60.1723	909.7197	-0.4402	1.3498	-0.25701	0.48664	0.52572	1.7474	-0.0592	0.0182	-0.0073	-0.0462	0.0165	0.9585
25.8847	-9.6391	866.9237	57.201	-323.1938	-57.5927	893.9428	0.0015765	1.0338	-0.25341	0.38465	0.35038	1.552	-0.0592	0.0182	-0.0073	-0.0462	0.0165	0.9585
25.9055	-6.3891	847.9762	55.5004	-315.9239	-54.0619	871.5744	0.17934	0.86457	-0.26502	0.32805	0.28103	1.4412	-0.0592	0.0182	-0.0073	-0.0462	0.0165	0.9585
25.9263	-2.3617	824.9686	53.2647	-307.2203	-49.7689	844.5113	0.18533	0.71372	-0.28931	0.27554	0.28614	1.297	-0.0592	0.0182	-0.0073	-0.0462	0.0165	0.9585
25.9471	2.3391	800.0474	50.6958	-297.8743	-44.9678	815.053	0.094677	0.45527	-0.32096	0.18499	0.3369	1.0009	-0.0592	0.0182	-0.0073	-0.0462	0.0165	0.9585
25.9679	7.547	775.4013	48.022	-288.6866	-39.9489	785.5687	-0.035751	-0.028595	-0.3531	0.016068	0.40582	0.43702	-0.0592	0.0182	-0.0073	-0.0462	0.0165	0.9585
25.9886	13.0543	753.0416	45.4555	-280.3904	-34.9904	758.2438	-0.1602	-0.8379	-0.3762	-0.26597	0.46473	-0.49744	-0.0592	0.0182	-0.0073	-0.0462	0.0165	0.9585
26.0094	18.6429	734.6555	43.1703	-273.6034	-30.3273	734.9137	-0.24024	-2.0391	-0.37576	-0.68412	0.48371	-1.8762	-0.0592	0.0182	-0.0073	-0.0462	0.0165	0.9585
26.0302	24.1075	721.498	41.3039	-268.7857	-26.148	716.9375	-0.24227	-3.6318	-0.33658	-1.2375	0.43533	-3.7019	-0.0592	0.0182	-0.0073	-0.0462	0.0165	0.9585
26.051	29.2884	714.2564	39.9621	-266.1865	-22.5963	705.0604	-0.13419	-5.5069	-0.24416	-1.8874	0.29355	-5.8598	-0.0592	0.0182	-0.0073	-0.0462	0.0165	0.9585
26.0718	34.0815	712.8905	39.2297	-265.7815	-19.7812	699.2755	0.11506	-7.3832	-0.086869	-2.5344	0.031433	-8.0462	-0.0592	0.0182	-0.0073	-0.0462	0.0165	0.9585
26.0926	38.4215	716.5608	39.1669	-267.2435	-17.7795	698.7735	0.52924	-8.7428	0.13979	-2.9953	-0.36871	-9.6836	-0.0592	0.0182	-0.0073	-0.0462	0.0165	0.9585
26.1134	42.2563	723.6934	39.8075	-269.9653	-16.6413	702.0231	1.1146	-8.7667	0.43012	-2.9813	-0.90528	-9.8505	-0.0592	0.0182	-0.0073	-0.0462	0.0165	0.9585
26.1341	45.518	732.1334	41.144	-273.119	-16.389	706.9457	1.8439	-6.2896	0.76209	-2.0831	-1.5447	-7.2358	-0.0592	0.0182	-0.0073	-0.0462	0.0165	0.9585
26.1549	48.1096	739.3787	43.0853	-275.7497	-16.9826	711.1486	2.635	0.19635	1.0864	0.2265	-2.2014	-0.13686	-0.0592	0.0182	-0.0073	-0.0462	0.0165	0.9585
26.1757	49.9169	742.8645	45.43	-276.8853	-18.29	712.1949	3.3281	12.4393	1.3119	4.5561	-2.713	13.4317	-0.0592	0.0182	-0.0073	-0.0462	0.0165	0.9585
26.1965	50.8197	740.1436	47.8869	-275.6119	-20.1034	707.7739	3.6561	32.179	1.2931	11.5066	-2.8161	35.4655	-0.0592	0.0182	-0.0073	-0.0462	0.0165	0.9585
26.2173	50.6995	729.0531	50.0965	-271.1392	-22.1581	695.8637	3.2107	60.6952	0.82214	21.5108	-2.1258	67.4659	-0.0592	0.0182	-0.0073	-0.0462	0.0165	0.9585
26.2381	49.4546	707.9473	51.6675	-262.8832	-24.1538	674.9446	1.4051	98.2845	-0.38504	34.6484	-0.10947	109.8446	-0.0592	0.0182	-0.0073	-0.0462	0.0165	0.9585
26.2589	47.0338	676.0483	52.24	-250.5905	-25.7955	644.3124	-2.1089	143.9473	-2.67	50.5342	3.7493	161.5548	-0.0592	0.0182	-0.0073	-0.0462	0.0165	0.9585
26.2796	43.4962	633.8859	51.5765	-234.4936	-26.8478	604.4695	-7.0617	195.1271	-6.3135	68.2381	9.6848	219.7404	-0.0592	0.0182	-0.0073	-0.0462	0.0165	0.9585
